<?xml version="1.0" encoding="UTF-8"?>
<svg id="Capa_2" data-name="Capa 2" xmlns="http://www.w3.org/2000/svg" viewBox="0 0 621.41 389.91">
  <defs>
    <style>
      .cls-1 {
        fill: #fff;
      }

      .cls-2 {
        fill: #682121;
      }
    </style>
  </defs>
  <path class="cls-2" d="m74.95,281.14l-20.31.43c-21.03.45-14.24,63.05-14.24,63.05,2.39,46.41-14.14,39.64-14.28,40.63h-11.18l-3.88-.45c-14.8,4.15-10.11-22.18-10.11-22.18v-33.25L7.17,27.32C-1.39-6.64,35.2.99,35.2.99h388.39s25.56,17.38-4.81,28.28l-39.03.55c-44.26-3.02-38.28,17.29-38.28,17.29l.52,90.99,23.61-.93-1.31-61.66c-.5-21.94,10.13-21.01,10.13-21.01h32.94c30.36-3.47,28.21,6.93,28.21,6.93l-.18,78.98c2.07,18.7-13.75,14.09-13.75,14.09l-59.16-1.09c-29.58-2.38-27.83,9-27.83,9l.58,98.72,25.11-.21v-52.08c-7.6-27.72,10.7-32.91,10.7-32.91l33.86-.7c30.16,0,26.84,10.4,26.84,10.4v91.1h-101.96s2.33,84.87.4,99.42c-1.95,14.59-22.2,13.49-22.2,13.49h-107.01s.78-15.93,1.55-40.86c.78-24.95,1.57-42.26,42.04-44.35,40.48-2.08,47.47-23.55,47.47-23.55,0,0-71.68-.38-92.63,1.4-14.4,1.2-22.32,37.39-20.61,77.59,1.35,32.22-26.86,28.64-26.86,28.64H59.33l3.88-48.72c3.9-42.27,30.36-31.88,61.49-34.65,31.15-2.77,27.25-25.63,27.25-25.63l-74.68,1.59-2.31.05Z"/>
  <path class="cls-1" d="m65.74,164.89s-25.43,100.75-20.24,97.92c0,0,5.97,4.85,20.24,1.85,0,0,7.01-81.06,25.94-77.13h42.55s35.54-23.56,21.27-24.71l-89.77,2.08Z"/>
  <path class="cls-2" d="m349.91,314.57s-2.42-17.4,14.51-17.4h58.3s13.24-2.17,12.53,8.7c-.71,10.87,0,64.72,0,64.72,0,0,4.13,17.92-15.22,17.92h-70.24l.12-73.94Z"/>
  <path class="cls-1" d="m214.23,164.89s-25.43,100.75-20.24,97.92c0,0,5.97,4.85,20.24,1.85,0,0,7.01-81.06,25.94-77.13h42.55s35.54-23.56,21.27-24.71l-89.77,2.08Z"/>
  <path class="cls-1" d="m85.74,42.79s-25.43,100.75-20.24,97.92c0,0,5.97,4.85,20.24,1.85,0,0,7.01-81.06,25.94-77.13h42.55s35.54-23.56,21.27-24.71l-89.77,2.08Z"/>
  <path class="cls-1" d="m238.87,35.05s-25.43,100.75-20.24,97.92c0,0,5.97,4.85,20.24,1.85,0,0,7.01-81.06,25.94-77.13h42.55s35.54-23.56,21.27-24.71l-89.77,2.08Z"/>
</svg>