<?xml version="1.0" encoding="utf-8"?>
<!-- Generator: Adobe Illustrator 27.2.0, SVG Export Plug-In . SVG Version: 6.00 Build 0)  -->
<svg version="1.1" id="Capa_1" xmlns="http://www.w3.org/2000/svg" xmlns:xlink="http://www.w3.org/1999/xlink" x="0px" y="0px"
	 viewBox="0 0 1093.1 742.9" style="enable-background:new 0 0 1093.1 742.9;" xml:space="preserve">
<style type="text/css">
	.st0{fill:#FFFFFF;}
	.st1{fill:#FCFCFC;}
	.st2{fill:#5A7D98;}
	.st3{fill:#FACE16;}
	.st4{fill:#04477F;}
	.st5{fill:#587C9A;}
	.st6{fill:#597E9B;}
</style>
<g>
	<path class="st0" d="M598.4,589.6c-3,8.2-6,16.3-9,24.5c-1.9,5.2-4.2,9.9-9.6,13.1c-4.5,2.7-12.6,2.9-17,0.3
		c-5.3-3.2-8-7.8-10-12.9c-14.9-39.2-29.7-78.4-44.6-117.6c-0.4-1.1-0.7-2.2-1.1-3.7c6.9,0,13.5,0,20.8,0
		c14.1,37,28.3,74.3,42.5,111.7c0.4,0,0.8,0,1.1,0c1.5-4.2,3.1-8.4,4.6-12.6c3.5-9.4,7-18.8,10.7-28.1c1.2-2.9,1.1-5.6-0.1-8.6
		c-7.3-19-14.5-38-21.7-57c-0.6-1.7-1.2-3.4-2-5.8c6.9,0,13.3-0.2,19.6,0.2c1,0,2.1,2.2,2.6,3.5c4,10.2,7.8,20.4,11.7,30.6
		c0.3,0.9,0.9,1.8,1.9,3.8c5-13.4,9.6-25.7,14.2-38c7,0,13.7,0,21,0c-2.3,6.2-4.4,12-6.6,17.8c-5.6,15.1-11.2,30.3-17,45.3
		c-1.5,3.8,0.1,6.8,1.3,10c4.9,12.9,9.8,25.8,14.9,39.3c0.8-1.2,1.4-1.8,1.7-2.5c9.4-25.3,18.7-50.5,28.1-75.8
		c3.9-10.5,7.9-20.9,11.8-31.4c0.8-2.1,1.8-3.1,4.5-3c5.6,0.2,11.2,0.1,17.5,0.1c-1,2.9-1.7,5.5-2.6,7.9
		c-12.7,34.1-25.4,68.3-38.2,102.4c-2.1,5.6-4.1,11.2-6.7,16.7c-2.8,6-8.1,9.4-15.3,9.5c-7.5,0.1-12.9-3.6-15.7-9.6
		c-3.6-7.5-6.3-15.4-9.5-23.1c-1-2.4-2-4.8-2.9-7.2C599.1,589.5,598.7,589.6,598.4,589.6z"/>
</g>
<path class="st0" d="M801.5,533.3c-3.4-9.7-7.2-19.3-11.6-28.5c-8-17-38.8-17.5-47.3-0.9c-4,7.8-7.8,15.7-10.9,24
	c-10.8,29.6-21.4,59.4-31.9,89.2c-1.3,3.6-2,7.4-3.3,12.5c5.1,0,8.4-0.5,11.5,0.1c9,1.8,13.2-2.9,16.3-12.6c3-9.4,6.3-18.7,9.6-27.9
	l64.3,4.7c3.2,9.5,6.5,19.1,9.8,28.6c1,2.9,4,6.4,6.4,6.8c6,1,12.2,0.3,20.5,0.3C823.2,595.6,812.5,564.4,801.5,533.3z M748.9,547.8
	c3.4-9.3,7.2-18.5,11.2-27.5c3-6.6,8.2-6.7,11.2-0.3c3.4,7.2,6.7,14.6,9.3,22.2c2.8,8.1,5.6,16.3,8.3,24.5l-45.9-3.3
	C745.1,558.2,747,553,748.9,547.8z"/>
<g>
	<g>
		<path class="st1" d="M95.2,724c2.7,1.5,6.7,2.8,10.9,2.8c6.2,0,9.8-3,9.8-7.3c0-4-2.5-6.2-8.9-8.5c-7.7-2.5-12.4-6.1-12.4-12.1
			c0-6.6,6.1-11.6,15.2-11.6c4.8,0,8.3,1,10.4,2.1l-1.7,4.5c-1.5-0.8-4.7-2-8.9-2c-6.4,0-8.9,3.5-8.9,6.4c0,4,2.9,5.9,9.3,8.2
			c7.9,2.8,12,6.2,12,12.5c0,6.6-5.4,12.2-16.4,12.2c-4.5,0-9.5-1.2-12-2.7L95.2,724z"/>
	</g>
	<g>
		<path class="st1" d="M240.2,709c0,14.7-9.8,22.4-21.8,22.4c-12.4,0-21.1-8.7-21.1-21.6c0-13.5,9.3-22.3,21.8-22.3
			C231.9,687.5,240.2,696.4,240.2,709z M203.8,709.7c0,9.1,5.4,17.2,15,17.2c9.6,0,15-8,15-17.7c0-8.5-4.9-17.3-15-17.3
			C208.8,691.9,203.8,700.3,203.8,709.7z"/>
	</g>
	<g>
		<path class="st1" d="M317.7,688.2h6.1v38h20.1v4.6h-26.1V688.2z"/>
	</g>
	<g>
		<path class="st1" d="M423.8,688.2v25.2c0,9.5,4.7,13.6,10.9,13.6c7,0,11.4-4.2,11.4-13.6v-25.2h6.1V713c0,13.1-7.6,18.4-17.8,18.4
			c-9.6,0-16.9-5-16.9-18.2v-25.1L423.8,688.2L423.8,688.2z"/>
	</g>
	<g>
		<path class="st1" d="M541.3,692.8H527v-4.7h34.8v4.7h-14.3v37.9h-6.1V692.8z"/>
	</g>
	<g>
		<path class="st1" d="M642.7,688.2v42.6h-6.1v-42.6H642.7z"/>
	</g>
	<g>
		<path class="st1" d="M763,709c0,14.7-9.8,22.4-21.8,22.4c-12.4,0-21.1-8.7-21.1-21.6c0-13.5,9.3-22.3,21.8-22.3
			C754.8,687.5,763,696.4,763,709z M726.6,709.7c0,9.1,5.4,17.2,15,17.2c9.6,0,15-8,15-17.7c0-8.5-4.9-17.3-15-17.3
			C731.6,691.9,726.6,700.3,726.6,709.7z"/>
	</g>
	<g>
		<path class="st1" d="M840.6,730.7v-42.6h6.6l15,21.5c3.5,5,6.2,9.5,8.4,13.8l0.1-0.1c-0.6-5.7-0.7-10.9-0.7-17.5v-17.8h5.7v42.6
			h-6.1l-14.9-21.6c-3.3-4.7-6.4-9.6-8.8-14.2l-0.2,0.1c0.3,5.4,0.5,10.5,0.5,17.6v18.2L840.6,730.7L840.6,730.7z"/>
	</g>
	<g>
		<path class="st1" d="M955.2,724c2.7,1.5,6.7,2.8,10.9,2.8c6.2,0,9.8-3,9.8-7.3c0-4-2.5-6.2-8.8-8.5c-7.7-2.5-12.4-6.1-12.4-12.1
			c0-6.6,6.1-11.6,15.2-11.6c4.8,0,8.3,1,10.4,2.1l-1.7,4.5c-1.5-0.8-4.7-2-8.9-2c-6.4,0-8.8,3.5-8.8,6.4c0,4,2.9,5.9,9.3,8.2
			c7.9,2.8,12,6.2,12,12.5c0,6.6-5.4,12.2-16.4,12.2c-4.5,0-9.5-1.2-12-2.7L955.2,724z"/>
	</g>
</g>
<g>
	<path class="st0" d="M885,520.3c0,18.7,0,36.8,0,54.9c0,17.9,0,35.8,0,54.6c-6.2,0-12,0.2-17.7-0.2c-1-0.1-2.5-2.8-2.5-4.4
		c-0.2-10.5-0.1-21-0.1-31.5c0-26,0-51.9,0-77.9c0-12.3,5.9-18.7,17.1-18.7c16.2,0,32.4,0,48.5,0c21.9,0,39.2,18.4,39.5,42
		c0.2,23.6-16.7,42.5-38.6,43c-2.2,0.1-4.4,0-8.2,0c13.3,16.3,25.7,31.4,38.8,47.5c-9.5,0-17.8,0.1-26.2-0.1c-1.2,0-2.5-1.4-3.5-2.5
		c-11.9-14.5-23.7-29.1-35.7-43.6c-4-4.8-5.8-10.1-3.2-16c2.5-5.8,7-8.5,13-8.3c8.1,0.2,16.2,0.1,24.3,0c11-0.2,18.9-8.5,18.8-19.7
		c-0.1-11.4-7.9-19.5-19-19.5c-13.6-0.1-27.2,0-40.8,0C888.3,520,887,520.1,885,520.3z"/>
</g>
<g>
	<path class="st0" d="M1083.9,497.4c0,7.5,0,14.5,0,22.2c-2.6,0.1-5.1,0.4-7.7,0.4c-19.9,0-39.8,0.1-59.7-0.1c-4.2,0-5.8,1.2-5.5,6
		c0.4,6.4,0.2,12.8,0,19.2c-0.2,4,1.1,5.2,4.7,5.1c15.8-0.2,31.7,0,47.6-0.2c3.5,0,5.1,1,4.8,5.1c-0.3,3.9-0.3,7.8,0,11.7
		c0.3,4.2-1.1,5.6-4.9,5.5c-15.5-0.2-31.1,0.1-46.6-0.2c-4.7-0.1-6,1.6-5.5,6.4c0.3,3.2,0.1,6.4,0.1,9.6
		c0.1,12.1,6.1,18.8,17.1,18.9c16.7,0.1,33.3,0,50,0c1.7,0,3.5,0,5.5,0c0,7.6,0,14.7,0,22.3c-1.4,0.2-2.9,0.5-4.4,0.5
		c-16.8,0-33.7,0-50.5,0c-22.4,0-38-16.7-38.2-41.2c-0.2-24.2-0.1-48.3,0-72.5c0.1-12.6,5.9-18.9,17.4-19c23.9-0.1,47.9,0,71.8,0
		C1081,497.1,1082.1,497.2,1083.9,497.4z"/>
</g>
<g>
	<path class="st2" d="M293.5,496.1c-64.9-13.4-78.7,33.4-78.7,33.4l1.2,62.7c0,0,7.1,33.8,57,35.8c50,2,57.4-40.7,57.4-40.7
		l1.2-55.4C319.4,495.3,293.5,496.1,293.5,496.1z M307.7,589c0.2,6.8-12.2,13.5-16.2,15.5c-0.8,0.4-1.7,0.6-2.6,0.6
		c-5,0.2-23.2,0.8-31.8,1.2c-7.8,0.3-16-10.1-19.2-14.8c-0.9-1.3-1.4-2.9-1.4-4.5c0.1-10.1,0.4-49.3,0.4-54.2
		c0-4.5,8.8-12.1,12.5-15.2c1-0.8,2.3-1.3,3.7-1.3l36.6,0.8c0.8,0,1.5,0.2,2.2,0.4c11.3,4.5,14.7,12.5,15.5,15.1
		c0.2,0.5,0.2,1,0.2,1.5C307.7,540,307.5,581.4,307.7,589z"/>
	<g>
		<ellipse class="st3" cx="272.1" cy="561.6" rx="17" ry="17.3"/>
	</g>
</g>
<path class="st4" d="M848,201c-11.7,0-21.3,9.4-22.5,21.4h-47.2c0-1.8,0.1-3.5,0.1-5.3c0-21.6-3.4-42.4-9.6-62l30.2-0.4l1.3-33.6
	h24.8c2.8,9.7,11.5,16.8,21.6,16.8c12.5,0,22.6-10.7,22.6-23.8c0-13.1-10.2-23.8-22.6-23.8c-11.5,0-20.9,9.1-22.4,20.7h-33.8
	l-1.3,33.7l-23.8,0.3C735,64,655.1,6.1,561.5,6.1c-119.6,0-216.8,94.6-216.8,211c0,66,31.4,125.1,80.4,163.8
	c0.1,0.4,0.3,0.9,0.4,1.3l0.9-0.3c37.1,28.8,84.1,46.2,135.1,46.2c114.2,0,208-86.4,216.2-195.5h48.9c3,9.4,11.5,16.2,21.4,16.2
	c12.5,0,22.6-10.7,22.6-23.8C870.6,211.7,860.4,201,848,201z M846.7,100.4c6.9,0,12.4,6.1,12.4,13.7s-5.6,13.7-12.4,13.7
	s-12.4-6.1-12.4-13.7S839.8,100.4,846.7,100.4z M768.2,217c0,1.8-0.1,3.5-0.1,5.3h-60.5c-2.4-24.3-6.9-46.5-12.5-66.3l63.1-0.8
	C764.6,174.7,768.2,195.5,768.2,217z M696.5,303.4c-46.5-23.5-90.8-31.8-129.9-32.1v-38.7h131.6
	C699.8,254.5,699.5,278.2,696.5,303.4z M421.3,232.5h135.1v38.8c-25.1,0.7-47.8,4.6-67.2,9.6c-27.6,7.2-50.9,17.2-68.8,26.4
	C417.9,281.2,418.5,256.1,421.3,232.5z M410.7,312.6c-9.7,5.4-17.3,10.3-22.4,13.9c-18.4-27.4-30.1-59.5-32.8-93.9h55.6
	C408.2,257.7,407.7,284.5,410.7,312.6z M566.6,110.7c3.8-0.1,7.7-0.4,11.6-0.7l-11.6,35.2V110.7z M556.4,143l-10-32.6
	c3.3,0.2,6.6,0.3,10,0.4V143z M589.3,108.7c21.2-3.1,43.8-9.7,67-21.7c5.3,10.1,10.7,21.2,15.6,33.3c3,7.4,6,15.4,8.8,23.9
	c-34.8,17.3-72.1,26-111.7,26.1L589.3,108.7z M592.8,98.1L616.2,27c7.2,8.4,21,25.9,35.3,51.2C632.4,88,612.9,94.7,592.8,98.1z
	 M629.9,27.6c20.2,6.9,38.9,16.7,55.7,29c-8.3,6.2-16.7,11.8-25.2,16.7C649,52.9,637.8,37.5,629.9,27.6z M581.6,99.7
	c-5,0.5-9.9,0.9-14.9,1.1V16.4c14,0.3,27.6,2,40.8,4.9L581.6,99.7z M556.4,100.9c-4.4-0.1-8.8-0.3-13.2-0.7l-24.4-79.5
	c0,0,0-0.1,0-0.1c12.2-2.5,24.8-3.9,37.7-4.2L556.4,100.9L556.4,100.9z M510,26.6l22.2,72.3c-7.7-1.1-15.5-2.6-23.3-4.5
	c-13.5-3.4-25.9-7.8-36.6-12.4C487.5,55.3,502.1,36.2,510,26.6z M463,77.8C449,71,438.4,64.4,432.5,60.3
	c19.1-14.9,41-26.6,64.9-34.2C488.8,37.2,476.1,54.8,463,77.8z M506,104.1c9,2.2,18.8,4.1,29.4,5.3l18.6,60.4
	c-18.6-1-37.8-3.7-57.4-8.4c-19.7-4.7-37.8-10.9-53.6-17.3c7.4-19.8,15.8-37.6,24.3-53.2C478.6,95.8,491.6,100.5,506,104.1z
	 M494,171.2c18.6,4.4,39.7,7.8,62.5,8.7v42.5H422.7c3.7-24.6,9.7-47.6,16.9-68.6C455.6,160.2,473.9,166.4,494,171.2z M492.2,290.7
	c21.6-5.6,43-8.8,64.2-9.4v52.1c-16.9,0.5-32.2,3.3-45.3,7c-38.2,10.8-64.7,30.4-73.4,37.5c-1.3-1-2.6-2-3.9-3
	c-5.8-19.3-9.8-38.2-12.2-56.5C439.6,308.7,463.7,298.1,492.2,290.7z M514.3,349.9c14.2-4,28.2-6.2,42.2-6.7v74.5
	c-40.6-1-78.4-13.3-109.9-33.9C456.5,376.1,480.9,359.2,514.3,349.9z M566.6,343.2c37.5,1,74.1,14.7,109.2,41
	c-31.4,20.4-68.9,32.6-109.2,33.5V343.2z M566.6,333.3v-52.2c44.1,0.2,87,11.2,128.5,32.9c-2.9,19.7-7.5,40.2-14.1,61.5
	C639.8,344.9,600.3,334.3,566.6,333.3z M566.6,222.3v-42.3c0.2,0,0.4,0,0.6,0c36.3,0,76.4-6.9,116.6-26.3
	c6.1,20.2,11,43.2,13.6,68.6H566.6z M699,145.8c13.9-7.9,27.9-17.4,41.6-28.7c5.3,8.9,9.9,18.3,13.8,28L699,145.8z M735.2,108.4
	c-14.5,12.1-29.6,22.4-45.3,31c-2.8-8.3-5.7-16.1-8.7-23.4c-5.1-12.4-10.5-23.7-15.9-33.9c9.5-5.4,19-11.8,28.6-19.1
	C709.9,76,723.8,91.3,735.2,108.4z M424.3,67.1c5.6,4,17.3,11.7,33.8,19.7c-8.5,15.7-16.9,33.6-24.4,53.5
	c-23.8-10.4-41.3-20.8-49.6-26C395,96.5,408.6,80.7,424.3,67.1z M379,123c8.9,5.6,26.8,16.3,51.2,26.9c-7.7,22.1-14,46.4-17.8,72.5
	H355c0-1.8-0.1-3.5-0.1-5.3C354.9,183.1,363.6,151.1,379,123z M394.2,334.7c4.3-2.9,10.3-6.8,17.9-11.2c1.8,13,4.4,26.2,7.9,39.7
	C410.5,354.6,401.9,345,394.2,334.7z M692.7,372.1c5.4-18.3,9.3-36,11.9-53c8.2,4.7,16.4,9.8,24.5,15.3
	C718.6,348.4,706.4,361.2,692.7,372.1z M734.9,326.1c-9.7-6.6-19.3-12.5-28.8-17.7c3.5-27,4-52.4,2.3-75.9h59.1
	C764.8,266.8,753.2,298.7,734.9,326.1z M848,238.5c-6.9,0-12.4-6.1-12.4-13.7s5.6-13.7,12.4-13.7s12.4,6.1,12.4,13.7
	S854.8,238.5,848,238.5z"/>
<g>
	<path class="st5" d="M5.9,627.8l19.4,0.7L58.4,522c3.3,15.8,6.6,31.6,9.8,47.5c1.9,9.4,3.9,18.9,5.9,28.3
		c1.7,8.1,2.7,17.7,7.9,24.1c6.3,7.8,16.4,7.8,22.4-0.5c3.9-5.3,6.1-12.1,7.8-18.7c11.9-45.4,16.9-81.4,16.9-81.4l31.6,107.3
		l18.9-0.7c0,0-9.3-34.7-19.1-69.1c-9.6-33.4-16.6-64.9-29.6-67.2c-20-3.6-24.4,49-24.4,49l-11.1,58.1c-0.2,0.8-1.2,0.8-1.4,0
		c-3.4-14.8-20.2-86.9-23.1-95.3c-3.3-9.6-13.1-20.9-23.1-2.9C37.7,518.4,5.9,627.8,5.9,627.8z"/>
</g>
<path class="st6" d="M464.3,546.9c0,0,18.4-33.4-21.1-49.9c-1.2-0.5-2.5-0.7-3.8-0.8c-10.4-0.2-57.9-6-60.5,10.9l-2.4,104
	c0,0-1.6,26.3,71.9,13.5C448.5,624.6,518,603.6,464.3,546.9z M398.1,518.6c0-0.1,15.6-0.1,16.6-0.1c4.4,0,8.8,0.1,13.2-0.1
	c4.1-0.2,8.5-0.7,12.4,0.9c4.1,1.7,6.4,5.7,6.5,9.6c0.2,5.3-2.8,13.7-10.2,13.5c-3.2-0.1-38.9-0.7-38.9-0.7
	C397.7,541.6,398.1,518.6,398.1,518.6z M464.1,587.5c-0.6,5.1-3.2,9.8-8.3,12.8c-11.5,6.8-57.3,4-57.3,4l0.4-40.5
	c10,0.1,20,0.2,29.9,0.3c8.3,0.1,18.2-1.4,25.8,2C464.1,570.3,465,579.4,464.1,587.5z"/>
</svg>
