<?xml version="1.0" encoding="utf-8"?>
<!-- Generator: Adobe Illustrator 27.2.0, SVG Export Plug-In . SVG Version: 6.00 Build 0)  -->
<svg version="1.1" id="Capa_1" xmlns="http://www.w3.org/2000/svg" xmlns:xlink="http://www.w3.org/1999/xlink" x="0px" y="0px"
	 viewBox="0 0 310.7 314.3" style="enable-background:new 0 0 310.7 314.3;" xml:space="preserve">
<style type="text/css">
	.st0{fill:#FCFCFC;}
</style>
<g>
	<g>
		<path class="st0" d="M244.3,67.3c0,11.1-0.1,22.3,0.1,33.4c0.1,5-1.1,9.6-3.1,14.1c-4.1,9.6-10.5,17.5-17.9,24.7
			c-8.9,8.6-19,15.6-29.7,21.8c-10.4,6-21.3,11.1-32.4,15.6c-2.2,0.9-4.3,1-6.6,0c-11.7-4.8-22.9-10.5-33.6-17.2
			c-10.9-6.7-21.1-14.4-30-23.7c-6.8-7.1-12.7-14.9-16.7-24c-0.7-1.6-1.4-3.2-2-4.9c-0.4-1.1-0.6-2.3-0.6-3.5
			c0-23.8,0-47.6-0.1-71.4c0-1.5,0.7-2.4,1.8-3.3c7.1-5.4,14.6-9.9,22.6-13.8C108.7,8.8,122,4.3,136,2c11.1-1.8,22.2-2.5,33.5-1.6
			c24.9,2.1,47.4,10.7,68.4,23.9c1.8,1.1,3.6,2.4,5.4,3.5c0.9,0.6,1.2,1.3,1.2,2.4C244.4,42.6,244.4,55,244.3,67.3
			C244.4,67.3,244.4,67.3,244.3,67.3z M154.2,168c0.1-1.2,0.1-1.9,0.1-2.6c0-25.7,0-51.4,0-77.1c0-0.3,0-0.6,0-0.9
			c-0.1-1.6-0.3-1.8-1.8-1.8c-9,0-18-0.1-27-0.1c-14.5,0-29,0.1-43.5,0.1c-0.3,0-0.6,0-0.9,0c-0.8,0-1.2,0.4-1.3,1.2
			c-0.1,1.1-0.3,2.2-0.3,3.3c-0.2,6.3,0.8,12.3,3,18.2c2.9,7.5,7.2,14.1,12.6,20.1c6.1,6.9,12.9,12.9,20.4,18.2
			c8.8,6.3,18.1,11.7,27.8,16.4C146.6,164.7,150.2,166.2,154.2,168z M162.8,77.7c2.5,0.5,71.5,0.4,73.2-0.1c0-0.6,0.1-1.2,0.1-1.9
			c0-13.5,0-27,0-40.4c0-1.4-0.4-2.3-1.5-3.2c-9.2-7.3-19.6-12.5-30.6-16.4c-7.4-2.6-14.9-4.7-22.6-6c-5.9-1-11.8-1.6-17.7-2.4
			c-0.3,0-0.5,0.1-0.9,0.2C162.8,30.9,162.8,54.3,162.8,77.7z M108.6,62.4c-1.5,0-2.8,0-4.1,0c-0.9,0-1.5,0.6-1.3,1.4
			c0.1,0.5,0.8,0.9,1.2,1.3c0.1,0.1,0.4,0.1,0.6,0.1c7.4,0,14.7,0.1,22.1-0.1c3.7-0.1,6.7-2.2,8.6-5.4c2.8-4.6,1.4-10.2-3.1-13.2
			c-1.1-0.7-2.2-1.3-3.4-2c0.6-0.5,1.1-0.8,1.6-1.2c4.4-3.6,4.6-9.3,0.6-13.4c-2.3-2.3-5.1-3.4-8.4-3.4c-5.8,0-11.6,0-17.5,0
			c-0.5,0-1.1-0.1-1.5,0.2c-0.4,0.3-0.9,0.9-0.9,1.3s0.5,1.1,0.9,1.3c0.5,0.2,1.1,0.2,1.7,0.2c0.9,0,1.7,0,2.7,0
			C108.6,40.5,108.6,51.2,108.6,62.4z M198.5,95.5c0,8.5,0.2,16.8-0.1,25c-0.2,5.2-4.7,8.8-9.9,8.8c-3.7,0-6.6-1.8-9.2-4.2
			c-0.4-0.3-0.5-1-0.5-1.6c-0.1-2,0-4,0-6c0-0.8,0.1-1.7-0.1-2.4c-0.2-0.5-0.8-1.1-1.3-1.2c-0.7-0.2-1.2,0.4-1.4,1.1
			c-0.1,0.4-0.1,0.7-0.1,1.1c0,2.9-0.1,5.9,0,8.8c0,0.6,0.4,1.5,0.9,1.9c2.1,1.5,4.1,3.2,6.4,4.3c10.1,4.5,18.9-3.9,18.4-11.9
			c-0.4-7-0.1-14.1-0.1-21.2c0-0.8,0.1-1.6,0.1-2.6c1.1,0,1.9,0,2.8,0c1.3,0,2.7,0,4-0.1c0.9,0,1.5-0.5,1.5-1.5
			c0-0.9-0.6-1.3-1.5-1.3c-0.6,0-1.2,0-1.8,0c-4.3,0-8.5,0-12.8,0c-1.8,0-3.7,0-5.5,0s-2.5,0.4-2.5,1.5c0,1,0.7,1.4,2.5,1.4
			c2.6,0,5.2,0,7.7,0C196.8,95.4,197.5,95.4,198.5,95.5z"/>
		<path class="st0" d="M198.1,231.6c-2.2-0.2-4.3-0.5-6.4-0.7c-0.8-0.1-1.6,0-2.4-0.1c-0.7-0.1-1.6-0.1-1.5-1.2
			c0.1-0.9,0.9-0.9,1.5-0.9c2.7-0.2,5.4-0.4,8.2-0.6c8.3-0.6,16.6-1,24.9-0.2c3.4,0.3,6.5,1.3,9.3,3.2c3.6,2.4,5.6,5.8,5.9,10.1
			c0.2,3.2-0.9,6-3.2,8.1c-1.7,1.6-3.8,2.8-5.7,4.1c-0.3,0.2-0.7,0.5-1.2,0.9c0.8,0.3,1.3,0.5,1.8,0.7c1.9,0.9,3.8,1.6,5.6,2.6
			c9.2,5.7,9.1,17.2,3.5,23.6c-3.7,4.2-8.4,6.6-13.9,7.5c-1.4,0.2-2.8,0.4-4.2,0.5c-9.5,0.2-19,0.3-28.5,0.4c-0.8,0-1.6-0.1-2.4-0.1
			c-0.5-1.4,0.3-1.7,1.2-1.9c1.5-0.4,3-0.6,4.5-1c2.7-0.7,3.2-1,3.4-3.8c0.2-3,0.3-6,0.3-9c-0.1-13.3-0.3-26.5-0.4-39.8
			C198.2,233.3,198.2,232.5,198.1,231.6z M206.5,258c0,1.1,0,2.5,0,3.9c0.1,6.2,0.3,12.5,0.3,18.7c0,3.2,2.4,5.5,5.4,6.1
			c3.7,0.7,7.3,0.7,10.9-0.4c6.3-1.9,10.8-7.8,10.6-14.2c-0.3-8.6-4.5-12.2-10.5-13.9c-5.3-1.5-10.8-1-16.2-0.6
			C206.9,257.7,206.8,257.8,206.5,258z M206.2,230.6c0.3,8-0.4,16,0.6,24.1c4,0.9,7.8,0.6,11.7-0.1c5.4-1,8.6-4.4,10.4-9.4
			c1.8-5.1,0.2-12.8-7.8-14.8c-4.4-1.1-8.9-1.2-13.3-0.4C207.2,230.1,206.8,230.4,206.2,230.6z"/>
		<path class="st0" d="M144.5,228.3c0.5,1.1,0.3,1.8-0.8,1.9c-0.7,0.1-1.5,0-2.2,0.1c-1.2,0.1-2.4,0-3.5,0.3
			c-1.4,0.3-2.3,1.2-2.3,2.8c-0.1,2.4-0.4,4.8-0.4,7.3c0,8,0,15.9,0.1,23.9c0.1,4.1,0.3,8.3,0.7,12.3c0.5,4.3,2.9,7.3,6.9,9
			c3.2,1.4,6.4,2.2,9.9,2c2.5-0.1,5-0.3,7.5-0.8c6.8-1.4,11-5.8,12.1-12.6c0.2-1.2,0.4-2.5,0.4-3.7c0-6.8,0-13.7-0.2-20.5
			c-0.1-4-0.4-7.9-0.6-11.9c-0.3-5.2-1-6.1-6.1-7.5c-0.6-0.2-1.3-0.3-1.9-0.5c-0.8-0.2-0.8-0.3-1.1-1.7c2.1-0.6,4.3-0.3,6.5-0.3
			s4.4,0.2,6.6,0.2c2.2,0,4.4-0.2,6.5-0.3c0.5,1.1,0.4,1.8-0.7,2c-1.3,0.3-2.6,0.4-3.9,0.8c-2.4,0.6-3.2,1.6-3.3,4
			c-0.1,2.1,0.1,4.3,0.1,6.4c0.1,9.6,0.3,19.2,0.2,28.7c0,2.7-0.7,5.4-1.3,8c-1.1,4.4-3.9,7.5-7.9,9.6c-3.8,2-7.8,3.1-12.1,3.2
			c-5,0.1-9.9,0-14.5-2.2c-1.2-0.6-2.4-1.1-3.5-1.8c-5.2-3.2-7.7-7.9-7.8-14c-0.1-7.2-0.2-14.4-0.2-21.7c0-5.3,0.1-10.6,0.1-15.9
			c0-1-0.1-2.1-0.4-3.1c-0.4-1.5-0.9-1.9-2.5-1.9c-1.2,0-2.4,0-3.5,0c-0.6,0-1.2,0-1.7-0.2c-0.4-0.2-0.7-0.6-1.1-0.9
			c0.4-0.3,0.8-0.7,1.2-1c0.2-0.1,0.6,0,0.9,0c7.4-0.1,14.9-0.1,22.3-0.2C143.5,228.1,144,228.2,144.5,228.3z"/>
		<path class="st0" d="M106.9,242c-0.2-0.4-0.4-0.9-0.6-1.3c-0.5-1.2-0.8-2.5-1.4-3.7c-4.1-8.9-14.2-9.2-19.5-6
			c-1.4,0.8-2.7,2-3.7,3.4c-2.6,3.4-2.2,7.8,0.8,10.8c1,1,2.2,1.9,3.5,2.7c3.1,1.8,6.3,3.5,9.4,5.3c3.3,1.9,6.6,3.6,9.7,5.7
			c5.8,3.9,8.3,9.5,7.2,16.4c-1.1,7.1-5,12.3-12,14.5c-6.9,2.2-13.8,1.7-20.7-0.3c-1.5-0.5-3-1.1-4.5-1.8c-1.2-0.5-1.7-1.5-1.6-2.8
			c0.3-3.7,0.6-7.5,0.9-11.2c0-0.3,0-0.6,0.2-0.9c0.1-0.2,0.4-0.6,0.6-0.5c0.3,0,0.8,0.2,0.9,0.5c0.2,0.7,0.3,1.4,0.5,2.1
			c1.7,7,6.1,11.5,13,13.4c6.2,1.7,12.8-1.1,15.7-6.2c2.5-4.5,1.9-9.3-1.7-13c-1.1-1.1-2.4-2.2-3.8-3c-2.5-1.6-5.1-3-7.6-4.4
			c-2.6-1.5-5.3-2.9-7.9-4.5c-2.6-1.5-4.7-3.5-6.5-5.9c-4.1-5.4-3.9-12.8,0.5-18c2.9-3.4,6.6-5.3,11-6.1c4-0.7,8.1-0.7,12.1,0.4
			c1.9,0.5,3.6,1.5,5.4,2.3c0.9,0.4,1.4,1.1,1.3,2.1c0,3-0.1,6-0.1,9c0,0.3-0.2,0.6-0.3,1C107.2,242,107,242,106.9,242z"/>
		<path class="st0" d="M273.6,228.3c0.4,1.3,0.1,1.7-0.8,1.7c-1.2,0.1-2.4,0.2-3.5,0.4c-2,0.4-2.6,1.1-2.6,3.2
			c-0.1,2.8-0.1,5.6,0,8.4c0.1,12.6,0.3,25.2,0.5,37.8c0.1,5.9-1,11.6-2.6,17.2c-1.4,4.8-3.9,9-7.4,12.7c-4,4.3-9.1,5.2-14.6,4.5
			c-0.8-0.1-1.6-0.4-2.3-0.8c-1.7-1-2.3-2.8-1.5-4.5c0.9-1.9,2.7-2.7,4.6-1.8c1.3,0.6,2.5,1.5,3.6,2.4c2.4,1.9,4,2.1,6.6,0.4
			c1.6-1,2.7-2.5,3.4-4.2c1.8-3.9,2.5-8,2.5-12.2c0.1-9.7-0.1-19.4-0.2-29.2c-0.1-9.3-0.2-18.6-0.3-27.8c0-0.3,0-0.6,0-0.9
			c0.1-2.9-0.4-4.7-4.2-4.7c-1.3,0-2.6-0.2-4-0.3c-1.1-0.1-1.6-0.6-1.3-1.8C257.6,228.5,265.6,228.4,273.6,228.3z"/>
		<path class="st0" d="M37.3,228.5c9.8,0,19.5,0,29.2,0c0.3,1.1-0.2,1.4-1.1,1.6c-1.8,0.3-3.6,0.5-5.5,0.8c-2.7,0.4-3.3,0.9-3.5,3.6
			c-0.2,2.4-0.3,4.9-0.3,7.3c0,12.4,0,24.7,0.1,37.1c0,1.4,0.1,2.8,0.2,4.2c0.2,2,1.3,3.3,3.3,3.6c1.1,0.2,2.2,0.4,3.3,0.5
			c0.8,0.1,1.6,0.2,2.4,0.4c0.7,0.1,1.2,0.6,1,1.4c-1.7,0.6-26.1,0.8-29.3,0.1c0.3-0.4,0.5-1,0.8-1.1c0.8-0.2,1.7-0.3,2.6-0.4
			c1.8-0.3,3.6-0.5,5.4-0.8c1.3-0.2,2.1-1.1,2.2-2.4c0.2-2.3,0.5-4.5,0.5-6.8c0-5.6-0.1-11.2-0.1-16.8c0-6.5,0-13-0.1-19.4
			c0-2.4,0-4.9-0.1-7.3c-0.1-2.2-0.5-2.7-2.7-3.1c-2.2-0.4-4.5-0.6-6.8-0.9C38,229.9,37.2,229.8,37.3,228.5z"/>
		<path class="st0" d="M299.7,99.5c4,4,4.3,9,1.8,13.4c-1.3,2.3-3.2,4.2-5.3,5.9c-1.2,1-1.6,0.9-2.7-0.4c-2.2-2.8-2.8-5.9-2.2-9.3
			c0.2-1,0.8-2.1,1.4-3C294.3,103.2,296.7,101.2,299.7,99.5z"/>
		<path class="st0" d="M19.6,111.9c0.3,2.3-1,4.5-2.3,6.6c-0.5,0.8-1.3,1.4-2.2,0.7c-3.6-2.8-6.7-6-7.2-10.9c-0.3-3,0.6-5.7,2.4-8.1
			c0.2-0.3,1.1-0.5,1.5-0.4C15.6,101.4,19.6,107.3,19.6,111.9z"/>
		<path class="st0" d="M264.5,152.5c0.1,2.1-0.9,3.8-1.9,5.5c-0.5,0.9-1.3,1.6-2.1,2.3c-3.4,3.1-3.5,2.6-5.2-1.3
			c-1.9-4.4-1.2-8.6,2.3-12.2c0.7-0.7,1.3-1.4,2.1-2c0.7-0.5,1.4-0.6,1.9,0.2C262.8,146.6,264.7,150.2,264.5,152.5z"/>
		<path class="st0" d="M45.7,143.2c-0.3,3.3-1.9,6.2-4.3,8.8c-0.6,0.6-1.3,0.7-1.9,0.1c-2.9-3.1-4.7-6.5-3.5-11
			c0.7-2.4,2.2-4.1,3.9-5.8c0.8-0.8,1.6-0.7,2.3,0.1C44,137.6,45.4,140,45.7,143.2z"/>
		<path class="st0" d="M37.1,130.6c0.1,3-1.4,5.2-3.1,7.4c-0.3,0.3-0.6,0.7-0.9,1c-3.1,3.2-3.4,2.1-5-0.8c-2.1-3.6-1.9-7.4,0.9-10.7
			c1.1-1.3,2.5-2.5,3.8-3.7c0.8-0.8,1.6-0.6,2.2,0.3C36.3,126,37.3,128.1,37.1,130.6z"/>
		<path class="st0" d="M56.5,154.9c-0.1,1.9-0.8,4.2-2.2,6.2c-0.9,1.2-1.4,1.3-2.5,0.4c-2.4-1.9-4.3-4.2-5.3-7.2
			c-0.8-2.6,0.3-4.9,1.3-7.2c0.1-0.2,0.3-0.4,0.4-0.5c1.8-2.9,2-2.9,4.5-0.5C54.9,148.4,56.5,151,56.5,154.9z"/>
		<path class="st0" d="M291.2,122.2c-0.1,2.1-1.1,3.8-1.9,5.5c-0.1,0.3-0.9,0.5-1.3,0.4c-3.9-1.2-8.4-7.2-8.3-11.3
			c0-1.5,0.4-3.1,0.9-4.5c0.4-1.2,1.1-1.4,2.3-0.8c2.9,1.7,5.7,3.5,7,6.7C290.4,119.5,290.7,120.9,291.2,122.2z"/>
		<path class="st0" d="M31.1,116.1c-0.1,3.1-0.9,5.5-2.6,7.3c-1.6,1.6-3.4,3-5.2,4.4c-1,0.8-1.7,0.4-2.2-0.8
			c-2.1-5.2-1.3-9,2.8-12.7c1.1-1,2.5-1.9,3.8-2.7c1.6-1,2.3-0.7,2.7,1.1C30.7,114,30.9,115.3,31.1,116.1z"/>
		<path class="st0" d="M284,133.2c0,2.7-1.1,4.9-2.6,6.9c-0.7,0.8-1.5,1-2.3,0.3c-2.3-2.1-4.4-4.3-5.1-7.5s-0.1-6.1,1.8-8.8
			c0.6-0.8,1.2-1.1,2-0.5c2.6,1.9,4.8,4.2,5.9,7.2C283.9,131.5,283.9,132.4,284,133.2z"/>
		<path class="st0" d="M243.1,171.2c-1.3-1.3-1.8-2.6-2-4c-0.5-4.3,0.8-7.8,4.1-10.6c1.1-0.9,2.2-1.7,3.4-2.4c1-0.6,1.6-0.3,2.1,0.8
			c2.5,5,1.2,10.1-3.3,13.5C246.1,169.4,244.7,170.2,243.1,171.2z"/>
		<path class="st0" d="M275.4,143.8c-0.2,3.4-2,6-4.3,8.3c-0.6,0.6-1.4,0.5-1.9-0.1c-3.9-4.6-5.8-9.6-1.6-15.3
			c0.4-0.5,0.8-1,1.3-1.5c0.6-0.6,1.4-0.6,2,0C273.2,137.6,275.2,140.2,275.4,143.8z"/>
		<path class="st0" d="M65.8,173.1c-7.2,4.4-16.8,4.6-23.3-0.3C46.9,167.9,59.7,167.2,65.8,173.1z"/>
		<path class="st0" d="M245.1,173c4.9-4.9,16.3-5.8,23.5-0.5c-0.4,0.4-0.8,0.9-1.2,1.1c-6.5,3.4-13.2,3.7-19.9,0.8
			c-0.7-0.3-1.3-0.6-2-0.9C245.3,173.4,245.3,173.3,245.1,173z"/>
		<path class="st0" d="M69.8,165.3c-0.3,1.5-0.5,3-1,4.5c-0.4,1.2-1.2,1.5-2.2,0.8c-1.9-1.4-3.9-2.7-5.5-4.4
			c-2.4-2.7-3.3-5.9-1.8-9.4c0.3-0.6,0.4-1.3,0.6-1.9c0.4-0.9,1.1-1.2,2-0.9C65.9,155.4,69.6,160.8,69.8,165.3z"/>
		<path class="st0" d="M225.7,174.5c-0.2-5.8,2.9-9.5,7.8-12c0.6-0.3,1.3-0.7,2-0.9c1.2-0.5,1.9-0.2,2.1,1c0.2,1.6,0.5,3.4,0.1,5
			c-0.7,3.3-2.7,5.8-5.7,7.4c-1.4,0.7-2.8,1.3-4.2,2c-1.5,0.7-2,0.4-2.1-1.2C225.6,175.3,225.7,174.9,225.7,174.5z"/>
		<path class="st0" d="M85.3,173.9c-0.1,0.7-0.1,1.1-0.1,1.5c-0.3,2-0.8,2.3-2.6,1.4c-1.9-0.9-3.9-1.8-5.6-3
			c-3.7-2.5-5-7.5-3.9-10.9c0.5-1.7,0.9-1.9,2.5-1.2c3.2,1.3,5.9,3.1,7.8,6.1C84.7,169.8,84.8,172.1,85.3,173.9z"/>
		<path class="st0" d="M18.9,129.3c-0.8,0.2-1.3,0.5-1.7,0.4c-5.1-0.4-10.1-1.4-13.9-5.2c-1.2-1.2-2.2-2.8-3-4.3c-0.7-1.2-0.2-2,1-2
			c6.3,0,12,1.4,15.7,7.1C17.8,126.4,18.2,127.8,18.9,129.3z"/>
		<path class="st0" d="M272.8,153.8c3-3.7,6.4-6,10.7-6.8c3.1-0.6,6.1-0.4,9.2,0.1c0.4,0.1,0.9,0.2,1.3,0.4c1.2,0.5,1.3,1,0.4,1.9
			c-1.9,1.9-4.1,3.4-6.6,4.3c-4.3,1.6-8.8,1.5-13.3,0.8C274.1,154.5,273.6,154.1,272.8,153.8z"/>
		<path class="st0" d="M250.9,182.1c-3.5,2.1-7.3,2.7-11.2,2.4c-4.7-0.4-10.1-2.7-11.6-4.8C235.3,174.6,246.7,176.7,250.9,182.1z"/>
		<path class="st0" d="M310.7,118.9c-1.5,7.7-12.8,11.6-18.6,10.4c0.8-3.9,3.1-6.7,6.5-8.6C302.7,118.3,308.6,117.6,310.7,118.9z"/>
		<path class="st0" d="M59.8,181.8c5.4-5.5,15.5-7,22.8-2.3C80.1,184.5,64.7,186.2,59.8,181.8z"/>
		<path class="st0" d="M190.3,183c0.5-3.6,2.2-6.7,5.1-9c2.4-1.9,5.4-2.7,8.3-3.4c1.3-0.3,1.8,0.3,1.7,1.8
			c-0.4,4.8-2.8,8.3-7.3,10.2c-2,0.8-4.2,1.3-6.3,1.8C190.8,184.6,190.3,184.1,190.3,183z"/>
		<path class="st0" d="M104.9,170.9c6,0.2,12.7,5.3,14.2,10.9c0.1,0.4,0.2,0.9,0.3,1.3c0.1,0.7-0.3,1.2-1,1.1
			c-4.1-0.7-8.1-1.3-11.3-4.4c-2-2-3.1-4.4-3.8-7.1C103,171.5,103.6,170.9,104.9,170.9z"/>
		<path class="st0" d="M97.9,193.8c2-3.6,5.1-5.8,8.8-7.1c4.2-1.5,8.3-0.6,12.6-0.1C115.6,193.5,104.6,196.8,97.9,193.8z"/>
		<path class="st0" d="M6.2,133.9c0.6-0.1,1.1-0.4,1.6-0.4c2.5,0,5-0.2,7.5,0.1c4.9,0.5,8.6,3.2,11.4,7.2c0.6,0.9,0.4,1.5-0.5,1.6
			c-6.8,0.8-15.4-0.5-19.9-7.6C6.2,134.6,6.2,134.3,6.2,133.9z"/>
		<path class="st0" d="M87.4,168.7c0-1.3,0.5-1.8,1.7-1.4c3.6,1,7,2.5,9.7,5.4c2,2.2,2.6,4.9,3.1,7.6c0.1,0.8-0.2,1.6-1.2,1.4
			c-3.8-0.8-7.5-2-10.3-4.9C88.1,174.5,87.3,171.8,87.4,168.7z"/>
		<path class="st0" d="M223.4,169c-0.1,5.2-2.7,8.7-7.4,10.8c-1.7,0.7-3.5,1.2-5.2,1.7c-1.4,0.4-1.9,0-1.8-1.5
			c0.5-4.7,2.8-8.3,7-10.5c1.7-0.9,3.5-1.5,5.3-2.1C222.8,166.8,223.5,167.4,223.4,169z"/>
		<path class="st0" d="M37.6,153.6c-1.8,1.4-6.5,1.9-10.8,1.2c-4.4-0.7-8.5-2.8-11.1-6.4c1.4-1.6,6.8-2.3,11.5-1.4
			C31.4,147.8,35,149.9,37.6,153.6z"/>
		<path class="st0" d="M51,164c-5.6,3.5-17.9,3.3-23.3-2.8c2.2-1.6,4.6-2,7.1-2.3C40.9,158.1,46.2,159.8,51,164z"/>
		<path class="st0" d="M282.9,161.3c-4.3,5.7-16.8,6.5-22.6,3C262.8,158.7,278.3,156.6,282.9,161.3z"/>
		<path class="st0" d="M304.9,134c-1.8,2.9-4,5-6.7,6.3c-4,2-8.3,2.5-12.7,2.1c-0.6-0.1-1.5-0.4-1.6-0.8c-0.2-0.5,0.2-1.3,0.6-1.7
			c3-3.8,6.8-6.2,11.8-6.5c2.3-0.1,4.5,0,6.8,0.1C303.6,133.5,304.1,133.8,304.9,134z"/>
		<path class="st0" d="M213.6,193.1c-5.9,3.1-17,0.6-21.7-5.7C196.4,183,210.5,186.6,213.6,193.1z"/>
		<path class="st0" d="M77.9,189.2c4.6-7.3,16.7-8.2,22-4.9C97.3,189.8,84,192.8,77.9,189.2z"/>
		<path class="st0" d="M210.7,184.3c6.8-3.7,18.3-1.7,22,4.8C227.1,192.7,215.2,190.5,210.7,184.3z"/>
		<path class="st0" d="M104.2,114.1c-2.8,1.7-5.3,2.5-8.2,2.2c-2.9-0.3-5.3-2.8-5.4-5.7c-0.1-3,2.2-5.6,5.3-6c2-0.3,3.9,0.2,5.9,0.8
			c3.7,1.1,7.4,2.4,11.2,3.2c6,1.4,12,1.1,17.9-0.2c3.8-0.8,7.5-1.9,11.3-3c1.8-0.6,3.8-0.5,5.6-0.7c0.5,0,1,0.1,1.5,0.3
			c0.3,0.1,0.6,0.5,0.6,0.8s-0.4,0.7-0.6,0.8c-4.8,1-8.7,3.9-12.8,6.3c-3.9,2.3-7.9,4.2-12.4,5.1c-2.7,0.6-5.3,0.3-7.8-0.7
			c-3.7-1.5-7.2-3.6-10.4-6.2c-1.6-1.3-3.5-2.4-5.3-3.6c-1.4-1-3.1-1-4.7-0.8c-1.7,0.2-3.1,1.7-3.2,3.4c-0.2,1.9,0.7,3.8,2.4,4.2
			c1.2,0.3,2.5,0.3,3.7,0.2c1.2-0.1,2.5-0.4,3.7-0.6C102.9,113.8,103.4,113.9,104.2,114.1z"/>
		<path class="st0" d="M122.1,108.3c-2.7-0.3-5.4-0.5-8.1-0.9c-2-0.3-2.3-0.9-1.3-2.7c1.6-2.9,4.1-4.4,7.3-4.8c4.3-0.6,7.5,1,9.7,5
			c0.9,1.7,0.7,2.4-1.2,2.7c-1.2,0.2-2.3,0.4-3.5,0.5c-0.9,0.1-1.9,0-2.9,0C122.1,108.1,122.1,108.2,122.1,108.3z"/>
		<path class="st0" d="M130.9,124c-6.5,0.3-13,0.5-19.5-0.1c2.1-2.8,4.9-4.3,8.3-4.5C124.1,119.1,128.1,120,130.9,124z"/>
		<path class="st0" d="M219.7,55c1.9,1.5,2.9-1,4.5-0.4c-0.2,0.4-0.2,0.9-0.5,1.1c-0.9,0.8-1.8,1.5-2.8,2.1s-1.9,0.9-2.2,2.2
			c-0.1,0.6-1.2,1.1-1.9,1.3c-4.2,1-8.3,0.8-12.1-1.7c-0.4-0.2-0.7-0.5-1-0.8s-0.6-0.7-0.9-1.1c0.2-0.3,0.3-0.7,0.5-1
			c0.9-0.9,1.1-1.9,0.4-3c-0.7-1.1-0.3-1.9,0.5-2.7c3.8-3.9,5.9-8.6,7.6-13.7c1.3-3.8,1.7-7.7,2.1-11.6c0-0.3,0.1-0.6,0.2-0.8
			c1.3-0.3,1.5,0.6,1.9,1.4c1.1,2.3,1.1,4.7,0.9,7.1c0,0.7,0,1.4,0,2c0.2,0,0.4,0.1,0.6,0.1c0.8-2.4,1.5-4.7,2.3-7.1
			c1.3,0.2,1.5,1.1,1.5,2.1c0.1,2.4,0.3,4.9-0.8,7.2c-0.3,0.6-0.4,1.3-0.3,2.3c0.5-0.6,1.1-1.1,1.4-1.7c0.8-1.4,1.5-2.9,2.3-4.2
			c0.2-0.4,0.8-0.5,1.1-0.8c0.2,0.4,0.5,0.7,0.6,1.1c0.3,2.1-0.5,4-1.3,5.9c-0.3,0.7-0.6,1.3-1,2.1c2.1,0.1,2.1-2.4,3.7-2.8
			c1.2,1.6-0.1,3-0.6,4.3s-1.5,2.4-2.3,3.6c0.1,0.1,0.2,0.3,0.4,0.4c0.8-0.5,1.6-1,2.5-1.5c0.6,0.7,0.3,1.3-0.1,2
			c-1.5,2.2-3.3,4.1-5.7,5.5C220.9,54.2,220.4,54.6,219.7,55z"/>
		<path class="st0" d="M181.7,40.3c0-0.5,0.1-0.9,0-1.4c-0.5-1.8-1.1-3.5-1.4-5.3c-0.3-1.6,0.1-3.2,1-4.9c1.8,2.4,1.3,5.7,3.5,7.7
			c1-0.6,0.5-1.3,0.3-2c-0.9-2.6,0-5.1,0.7-7.6c0.2-0.6,0.7-1.1,1.4-1.7c1.1,10.3,3.8,19.8,11.1,27.4c-0.9,2.7-0.9,2.7,0.9,5.3
			c-0.6,0.6-1.2,1.3-2,1.8c-3.7,2.4-7.7,2.8-11.9,1.9c-1.1-0.2-2.4-0.5-2.7-2.2c-0.1-0.5-0.9-0.9-1.4-1.2c-1.1-0.8-2.2-1.5-3.2-2.3
			c-0.3-0.2-0.4-0.7-0.7-1.1c1.7-0.7,2.7,1.9,4.5,0.5c-1.6-1.3-3.2-2.4-4.6-3.7c-1.5-1.3-2.6-2.9-3.4-5c1.9-0.4,2.1,2.2,4.1,1.7
			c-1.4-2.7-3.6-4.9-3.5-8.2c1.8,0.5,1.9,2.5,3.5,3c0.7-0.5,0.5-1,0.2-1.5c-1.4-1.9-1.5-4.1-2-6.2c-0.1-0.6,0.1-1.2,0.2-1.8
			c0.2,0,0.3-0.1,0.5-0.1c0.7,1.2,1.4,2.5,2.1,3.7c0.7,1.2,1.4,2.3,2.2,3.5C181.2,40.4,181.4,40.3,181.7,40.3z"/>
		<path class="st0" d="M111.8,62.2c0-5.1,0-10.2,0-15.4c0.4-0.1,0.8-0.2,1.2-0.2c3.6,0,7.2-0.1,10.8,0.1c1.9,0.1,4,0.6,5.7,1.3
			c3.3,1.4,4.9,4.4,4.6,7.6c-0.4,3.1-3.1,5.8-6.4,6.5c-0.8,0.2-1.6,0.3-2.4,0.3c-4.1,0-8.2,0-12.4,0
			C112.6,62.3,112.2,62.2,111.8,62.2z"/>
		<path class="st0" d="M111.7,43.3c0-4.6,0-9,0-13.6c0.5-0.1,1-0.3,1.5-0.3c3.1,0,6.2-0.1,9.3,0c2.3,0,4.5,0.5,6.4,2.1
			c3.6,3,3.3,7.7-0.7,10.2c-1.3,0.8-2.8,1.4-4.3,1.5C119.8,43.4,115.9,43.3,111.7,43.3z"/>
	</g>
	<g>
		<path class="st0" d="M35.5,215c0.3,0,0.6,0,0.9,0s0.5-0.1,0.7-0.1c0.2-0.1,0.4-0.2,0.5-0.3s0.3-0.3,0.3-0.5s0.2-0.4,0.3-0.7
			s0.1-0.6,0.2-1h0.4l-0.1,3.2h-7.1V215h1.3v-8.2h-1.3v-0.5h3.8v0.5H34v8.2H35.5z"/>
		<path class="st0" d="M42.1,210.5H43c0.3,0,0.5,0,0.7,0s0.3-0.1,0.5-0.2c0.1-0.1,0.2-0.3,0.3-0.5s0.1-0.5,0.1-0.9H45v3.8h-0.5
			c0-0.4-0.1-0.7-0.1-0.9c-0.1-0.2-0.1-0.4-0.2-0.5s-0.3-0.2-0.5-0.2s-0.4,0-0.7,0h-0.8v4h1.7c0.3,0,0.6,0,0.9,0s0.5-0.1,0.7-0.1
			s0.3-0.2,0.5-0.3c0.1-0.1,0.2-0.3,0.3-0.5s0.2-0.4,0.2-0.7s0.1-0.6,0.2-1H47l-0.1,3.1h-7.3V215h1.3v-8.2h-1.3v-0.5h7.1l0.1,2.5
			h-0.4c-0.1-0.4-0.1-0.8-0.2-1c-0.1-0.3-0.2-0.5-0.4-0.6c-0.2-0.2-0.4-0.3-0.7-0.3c-0.3-0.1-0.6-0.1-1-0.1h-2
			C42.1,206.8,42.1,210.5,42.1,210.5z"/>
		<path class="st0" d="M50.7,215v0.5h-3.1V215h1.2l3.3-8.8h0.5l3.1,8.8H57v0.5h-3.9V215h1.3l-1-2.7h-3l-1,2.7H50.7z M52,208.2
			l-1.3,3.6h2.6L52,208.2L52,208.2z"/>
		<path class="st0" d="M61.3,215c0.3,0,0.6,0,0.9,0s0.5-0.1,0.7-0.1c0.2-0.1,0.4-0.2,0.5-0.3s0.3-0.3,0.3-0.5s0.2-0.4,0.3-0.7
			s0.1-0.6,0.2-1h0.4l-0.1,3.2h-7.1V215h1.3v-8.2h-1.3v-0.5h3.8v0.5h-1.3v8.2H61.3z"/>
		<path class="st0" d="M64.9,206.3h7.4l0.2,2.7H72c-0.1-0.5-0.1-0.9-0.2-1.1s-0.2-0.5-0.4-0.7c-0.2-0.2-0.4-0.3-0.7-0.3
			s-0.6-0.1-1-0.1h-0.5v8.2h1.4v0.5h-4V215H68v-8.2h-0.5c-0.3,0-0.5,0-0.7,0s-0.4,0.1-0.6,0.1c-0.2,0.1-0.3,0.1-0.4,0.2
			s-0.2,0.2-0.3,0.4s-0.1,0.4-0.2,0.6c-0.1,0.2-0.1,0.5-0.1,0.8h-0.4L64.9,206.3z"/>
		<path class="st0" d="M75.1,215v0.5H72V215h1.2l3.3-8.8H77l3.1,8.8h1.3v0.5h-3.9V215h1.3l-1-2.7h-3l-1,2.7H75.1z M76.4,208.2
			l-1.3,3.6h2.6L76.4,208.2L76.4,208.2z"/>
		<path class="st0" d="M81.7,215.5V215H83v-8.2h-1.3v-0.5h3.8c0.9,0,1.6,0.1,2.1,0.3c0.6,0.2,1,0.5,1.4,0.9s0.6,0.9,0.8,1.4
			c0.1,0.6,0.2,1.2,0.2,1.9c0,0.4,0,0.8-0.1,1.2s-0.1,0.8-0.3,1.1c-0.1,0.3-0.3,0.7-0.5,1s-0.5,0.6-0.8,0.8s-0.8,0.4-1.2,0.5
			s-1,0.2-1.7,0.2L81.7,215.5L81.7,215.5z M84.2,215h1.1c0.7,0,1.2-0.1,1.6-0.2c0.4-0.1,0.8-0.3,1-0.7s0.4-0.7,0.5-1.3
			s0.2-1.2,0.2-2.1c0-0.5,0-0.9,0-1.2c0-0.4-0.1-0.7-0.2-1s-0.2-0.6-0.4-0.8c-0.2-0.2-0.3-0.4-0.6-0.5c-0.2-0.1-0.5-0.3-0.9-0.3
			s-0.7-0.1-1.2-0.1H84v8.2H84.2z"/>
		<path class="st0" d="M91.6,217.4c0.2-0.1,0.3-0.3,0.4-0.4c0.1-0.1,0.3-0.3,0.4-0.4s0.2-0.3,0.2-0.5c0.1-0.2,0.1-0.3,0.1-0.5
			c0-0.1,0-0.1,0-0.2c0-0.1,0-0.1,0-0.2l0,0c-0.1,0.2-0.2,0.3-0.3,0.3c-0.1,0.1-0.3,0.1-0.4,0.1s-0.2,0-0.3-0.1
			c-0.1,0-0.2-0.1-0.3-0.1c-0.1-0.1-0.1-0.1-0.2-0.2s-0.1-0.2-0.1-0.3s0-0.2,0.1-0.3s0.1-0.2,0.2-0.3s0.2-0.2,0.3-0.2
			c0.1-0.1,0.2-0.1,0.4-0.1c0.2,0,0.3,0,0.5,0.1c0.1,0.1,0.3,0.2,0.4,0.3s0.2,0.3,0.3,0.5c0.1,0.2,0.1,0.4,0.1,0.6
			c0,0.4-0.1,0.8-0.3,1.2c-0.2,0.4-0.6,0.8-1,1.1c-0.1-0.1-0.1-0.1-0.2-0.2C91.7,217.5,91.6,217.5,91.6,217.4z"/>
		<path class="st0" d="M97.8,215.5V215h1.3v-8.2h-1.3v-0.5h3.8c0.9,0,1.6,0.1,2.1,0.3c0.6,0.2,1,0.5,1.4,0.9s0.6,0.9,0.8,1.4
			c0.1,0.6,0.2,1.2,0.2,1.9c0,0.4,0,0.8-0.1,1.2s-0.1,0.8-0.3,1.1c-0.1,0.3-0.3,0.7-0.5,1s-0.5,0.6-0.8,0.8s-0.8,0.4-1.2,0.5
			s-1,0.2-1.7,0.2L97.8,215.5L97.8,215.5z M100.3,215h1.1c0.7,0,1.2-0.1,1.6-0.2c0.4-0.1,0.8-0.3,1-0.7s0.4-0.7,0.5-1.3
			s0.2-1.2,0.2-2.1c0-0.5,0-0.9,0-1.2c0-0.4-0.1-0.7-0.2-1s-0.2-0.6-0.4-0.8c-0.2-0.2-0.3-0.4-0.6-0.5c-0.2-0.1-0.5-0.3-0.9-0.3
			s-0.7-0.1-1.2-0.1h-1.3v8.2H100.3z"/>
		<path class="st0" d="M110,206.8v8.2h1.3v0.5h-3.8V215h1.3v-8.2h-1.3v-0.5h3.8v0.5H110z"/>
		<path class="st0" d="M112.4,212.8h0.4c0,0.5,0.1,0.9,0.3,1.2s0.3,0.6,0.5,0.8s0.4,0.3,0.7,0.4c0.3,0.1,0.5,0.1,0.8,0.1
			c0.4,0,0.7,0,0.9-0.1c0.3-0.1,0.5-0.2,0.6-0.4c0.2-0.2,0.3-0.3,0.4-0.6c0.1-0.2,0.1-0.5,0.1-0.7c0-0.3-0.1-0.6-0.2-0.8
			s-0.3-0.4-0.5-0.5s-0.4-0.3-0.7-0.4s-0.6-0.2-0.9-0.3s-0.6-0.2-0.9-0.4c-0.3-0.1-0.6-0.3-0.8-0.5s-0.4-0.4-0.5-0.7
			s-0.2-0.6-0.2-1.1c0-0.4,0.1-0.8,0.2-1.1s0.3-0.6,0.6-0.8c0.2-0.2,0.6-0.4,0.9-0.5c0.4-0.1,0.8-0.2,1.3-0.2c0.2,0,0.4,0,0.6,0
			s0.4,0,0.6,0.1c0.2,0,0.4,0.1,0.6,0.1c0.2,0.1,0.4,0.1,0.6,0.2l0.1,2.3h-0.4c0-0.5-0.1-0.8-0.3-1.1s-0.3-0.5-0.5-0.7
			s-0.4-0.3-0.6-0.3c-0.2-0.1-0.5-0.1-0.7-0.1c-0.3,0-0.6,0-0.8,0.1c-0.2,0.1-0.4,0.2-0.6,0.3s-0.3,0.3-0.4,0.5s-0.1,0.4-0.1,0.7
			s0.1,0.6,0.2,0.8s0.3,0.4,0.5,0.5s0.4,0.3,0.7,0.4c0.3,0.1,0.6,0.2,0.9,0.4c0.3,0.1,0.6,0.2,0.9,0.4c0.3,0.1,0.6,0.3,0.8,0.5
			c0.2,0.2,0.4,0.4,0.6,0.7c0.1,0.3,0.2,0.7,0.2,1.1c0,0.4-0.1,0.8-0.2,1.1s-0.4,0.6-0.6,0.8c-0.3,0.2-0.6,0.4-1,0.5
			s-0.8,0.2-1.3,0.2c-0.2,0-0.4,0-0.7,0c-0.2,0-0.5-0.1-0.7-0.1s-0.4-0.1-0.7-0.1s-0.4-0.1-0.6-0.2L112.4,212.8z"/>
		<path class="st0" d="M126.7,212.8l-0.1,2.5c-0.2,0.1-0.4,0.1-0.7,0.2c-0.2,0.1-0.5,0.1-0.7,0.1s-0.5,0.1-0.7,0.1s-0.5,0-0.7,0
			c-0.6,0-1.2-0.1-1.7-0.3s-1-0.5-1.3-0.9c-0.4-0.4-0.6-0.9-0.8-1.5c-0.2-0.6-0.3-1.2-0.3-2c0-0.7,0.1-1.4,0.3-2s0.5-1.1,0.9-1.6
			c0.4-0.4,0.8-0.8,1.4-1c0.5-0.2,1.1-0.3,1.8-0.3c0.2,0,0.4,0,0.6,0s0.4,0,0.6,0.1c0.2,0,0.4,0.1,0.6,0.1c0.2,0.1,0.4,0.1,0.6,0.2
			l0.1,2.3h-0.4c0-0.5-0.1-0.8-0.3-1.1c-0.1-0.3-0.3-0.5-0.5-0.7s-0.4-0.3-0.7-0.3s-0.5-0.1-0.8-0.1s-0.5,0-0.8,0.1
			s-0.5,0.1-0.7,0.3c-0.2,0.1-0.4,0.3-0.6,0.5s-0.3,0.5-0.4,0.8s-0.2,0.7-0.3,1.2c-0.1,0.4-0.1,1-0.1,1.6s0,1.1,0.1,1.5
			s0.2,0.8,0.3,1.1c0.1,0.3,0.3,0.6,0.4,0.8c0.2,0.2,0.4,0.4,0.6,0.5s0.4,0.2,0.7,0.3s0.5,0.1,0.8,0.1s0.6,0,0.9-0.1
			s0.5-0.2,0.7-0.4s0.4-0.4,0.5-0.8c0.1-0.3,0.2-0.7,0.3-1.2h0.4V212.8z"/>
		<path class="st0" d="M130.6,206.8v8.2h1.3v0.5H128V215h1.3v-8.2H128v-0.5h3.8v0.5H130.6z"/>
		<path class="st0" d="M136.1,206.3c0.7,0,1.3,0.1,1.8,0.2s0.9,0.3,1.2,0.5s0.5,0.5,0.6,0.8s0.2,0.7,0.2,1c0,0.4-0.1,0.7-0.2,1
			c-0.1,0.3-0.3,0.6-0.6,0.9s-0.7,0.5-1.2,0.6s-1.1,0.2-1.9,0.2h-0.9v3.3h1.3v0.5h-3.8V215h1.3v-8.2h-1.3v-0.5H136.1z M135.2,211.2
			h0.8c0.5,0,0.9,0,1.2-0.1s0.6-0.2,0.8-0.4s0.3-0.4,0.4-0.7c0.1-0.3,0.1-0.7,0.1-1.1c0-0.4,0-0.7-0.1-0.9s-0.2-0.5-0.4-0.7
			s-0.4-0.3-0.8-0.4c-0.3-0.1-0.7-0.1-1.3-0.1H135v4.4H135.2z"/>
		<path class="st0" d="M144.8,215c0.3,0,0.6,0,0.9,0s0.5-0.1,0.7-0.1c0.2-0.1,0.3-0.2,0.5-0.3c0.1-0.1,0.3-0.3,0.3-0.5
			c0.1-0.2,0.2-0.4,0.2-0.7c0.1-0.3,0.1-0.6,0.2-1h0.4l-0.1,3.2h-7.1V215h1.3v-8.2h-1.3v-0.5h3.8v0.5h-1.3v8.2H144.8z"/>
		<path class="st0" d="M151.4,206.8v8.2h1.3v0.5h-3.8V215h1.3v-8.2h-1.3v-0.5h3.8v0.5H151.4z"/>
		<path class="st0" d="M161.3,215.6h-0.5l-5.5-8.5l0,0v7.9h1.1v0.5h-3V215h1.3v-8.2h-1.3v-0.5h2.8l4.4,6.9l0,0v-6.4h-1.3v-0.5h3.1
			v0.5h-1.3v8.8H161.3z"/>
		<path class="st0" d="M165.6,215v0.5h-3.1V215h1.2l3.3-8.8h0.5l3.1,8.8h1.3v0.5H168V215h1.3l-1-2.7h-3l-1,2.7H165.6z M166.9,208.2
			l-1.3,3.6h2.6L166.9,208.2L166.9,208.2z"/>
		<path class="st0" d="M173,217.4c0.2-0.1,0.3-0.3,0.4-0.4c0.1-0.1,0.2-0.3,0.4-0.4s0.2-0.3,0.2-0.5c0.1-0.2,0.1-0.3,0.1-0.5
			c0-0.1,0-0.1,0-0.2c0-0.1,0-0.1,0-0.2l0,0c-0.1,0.2-0.2,0.3-0.3,0.3c-0.1,0.1-0.3,0.1-0.4,0.1c-0.1,0-0.2,0-0.3-0.1
			c-0.1,0-0.2-0.1-0.3-0.1c-0.1-0.1-0.1-0.1-0.2-0.2c0-0.1-0.1-0.2-0.1-0.3s0-0.2,0.1-0.3c0-0.1,0.1-0.2,0.2-0.3s0.2-0.2,0.3-0.2
			c0.1-0.1,0.2-0.1,0.4-0.1s0.3,0,0.5,0.1s0.3,0.2,0.4,0.3c0.1,0.1,0.2,0.3,0.3,0.5s0.1,0.4,0.1,0.6c0,0.4-0.1,0.8-0.3,1.2
			s-0.6,0.8-1,1.1c-0.1-0.1-0.1-0.1-0.2-0.2C173.1,217.5,173.1,217.5,173,217.4z"/>
		<path class="st0" d="M180.5,215v-8.2h-1.3v-0.5h3.8v0.5h-1.3v3.7h4.2v-3.7h-1.3v-0.5h3.8v0.5h-1.3v8.2h1.3v0.5h-3.8V215h1.3v-4
			h-4.2v4h1.3v0.5h-3.8V215H180.5z"/>
		<path class="st0" d="M189.8,211c0-0.8,0.1-1.4,0.3-2s0.5-1.1,0.9-1.5s0.8-0.8,1.3-1s1.1-0.3,1.7-0.3c0.6,0,1.1,0.1,1.6,0.3
			s0.9,0.5,1.3,0.9c0.4,0.4,0.6,0.9,0.8,1.5s0.3,1.2,0.3,2c0,0.7-0.1,1.4-0.3,2s-0.5,1.1-0.8,1.6s-0.8,0.8-1.3,1s-1.1,0.4-1.7,0.4
			c-0.6,0-1.2-0.1-1.7-0.3s-0.9-0.5-1.3-0.9c-0.4-0.4-0.6-0.9-0.8-1.5C189.9,212.4,189.8,211.7,189.8,211z M191.2,211
			c0,0.6,0,1.1,0.1,1.5s0.1,0.8,0.3,1.1c0.1,0.3,0.2,0.6,0.4,0.8s0.3,0.4,0.5,0.5s0.4,0.2,0.6,0.3c0.2,0,0.5,0.1,0.7,0.1
			c0.3,0,0.5,0,0.7-0.1c0.2,0,0.5-0.1,0.7-0.3c0.2-0.1,0.4-0.3,0.6-0.5s0.3-0.5,0.4-0.8c0.1-0.3,0.2-0.7,0.3-1.2
			c0.1-0.4,0.1-1,0.1-1.6s0-1.1-0.1-1.5s-0.1-0.8-0.3-1.1s-0.2-0.6-0.4-0.8s-0.3-0.4-0.5-0.5s-0.4-0.2-0.6-0.3
			c-0.2,0-0.5-0.1-0.7-0.1s-0.5,0-0.7,0.1s-0.5,0.1-0.7,0.3s-0.4,0.3-0.6,0.5c-0.2,0.2-0.3,0.5-0.4,0.8s-0.2,0.7-0.3,1.2
			C191.2,209.8,191.2,210.4,191.2,211z"/>
		<path class="st0" d="M207.1,215.6h-0.5l-5.5-8.5l0,0v7.9h1.1v0.5h-3V215h1.3v-8.2h-1.3v-0.5h2.8l4.4,6.9l0,0v-6.4h-1.3v-0.5h3.1
			v0.5h-1.3v8.8H207.1z"/>
		<path class="st0" d="M209.5,211c0-0.8,0.1-1.4,0.3-2s0.5-1.1,0.9-1.5s0.8-0.8,1.3-1s1.1-0.3,1.7-0.3c0.6,0,1.1,0.1,1.6,0.3
			s0.9,0.5,1.3,0.9c0.4,0.4,0.6,0.9,0.8,1.5s0.3,1.2,0.3,2c0,0.7-0.1,1.4-0.3,2s-0.5,1.1-0.8,1.6s-0.8,0.8-1.3,1s-1.1,0.4-1.7,0.4
			c-0.6,0-1.2-0.1-1.7-0.3s-0.9-0.5-1.3-0.9c-0.4-0.4-0.6-0.9-0.8-1.5C209.6,212.4,209.5,211.7,209.5,211z M210.8,211
			c0,0.6,0,1.1,0.1,1.5s0.1,0.8,0.3,1.1c0.1,0.3,0.2,0.6,0.4,0.8s0.3,0.4,0.5,0.5s0.4,0.2,0.6,0.3c0.2,0,0.5,0.1,0.7,0.1
			c0.3,0,0.5,0,0.7-0.1c0.2,0,0.5-0.1,0.7-0.3c0.2-0.1,0.4-0.3,0.6-0.5s0.3-0.5,0.4-0.8c0.1-0.3,0.2-0.7,0.3-1.2
			c0.1-0.4,0.1-1,0.1-1.6s0-1.1-0.1-1.5s-0.1-0.8-0.3-1.1s-0.2-0.6-0.4-0.8s-0.3-0.4-0.5-0.5s-0.4-0.2-0.6-0.3
			c-0.2,0-0.5-0.1-0.7-0.1s-0.5,0-0.7,0.1s-0.5,0.1-0.7,0.3s-0.4,0.3-0.6,0.5c-0.2,0.2-0.3,0.5-0.4,0.8s-0.2,0.7-0.3,1.2
			C210.9,209.8,210.8,210.4,210.8,211z"/>
		<path class="st0" d="M222.4,206.3c0.7,0,1.2,0.1,1.7,0.2s0.8,0.2,1.1,0.4s0.5,0.4,0.6,0.7s0.2,0.6,0.2,0.9c0,0.3,0,0.5-0.1,0.8
			s-0.2,0.5-0.4,0.7s-0.4,0.4-0.7,0.5s-0.6,0.3-0.9,0.3l0,0c0.3,0.1,0.5,0.2,0.7,0.3s0.3,0.3,0.5,0.5s0.2,0.4,0.3,0.7
			c0.1,0.2,0.1,0.5,0.2,0.8c0.1,0.3,0.1,0.6,0.1,0.8s0.1,0.5,0.2,0.6c0.1,0.2,0.2,0.3,0.3,0.4c0.1,0.1,0.3,0.1,0.5,0.1
			c0,0,0.1,0,0.2,0c0.1,0,0.1,0,0.2,0v0.5c-0.1,0-0.1,0-0.2,0s-0.2,0-0.3,0s-0.2,0-0.3,0s-0.2,0-0.2,0c-0.4,0-0.7,0-0.9-0.1
			s-0.4-0.2-0.5-0.4s-0.2-0.4-0.2-0.6c0-0.2-0.1-0.5-0.1-0.9c-0.1-0.5-0.1-0.9-0.2-1.3s-0.2-0.6-0.3-0.8s-0.3-0.4-0.5-0.4
			c-0.2-0.1-0.5-0.1-0.8-0.1h-1.2v4h1.3v0.5h-3.8V215h1.3v-8.2h-1.3v-0.5H222.4z M221.4,210.5h0.8c0.5,0,0.8,0,1.1-0.1
			s0.6-0.2,0.7-0.4c0.2-0.2,0.3-0.4,0.4-0.6c0.1-0.3,0.1-0.6,0.1-0.9c0-0.3,0-0.5-0.1-0.8c-0.1-0.2-0.2-0.4-0.4-0.5
			s-0.4-0.2-0.7-0.3s-0.7-0.1-1.2-0.1h-0.9v3.7H221.4z"/>
		<path class="st0" d="M230.4,206.3h3.8v0.5H233l2.3,3.7l2.3-3.7h-1.2v-0.5h3v0.5h-1.1l-2.7,4.3v3.9h1.4v0.5h-4V215h1.4v-3.7
			l-2.9-4.5h-1.1V206.3z"/>
		<path class="st0" d="M245.6,210.5h0.8c0.3,0,0.5,0,0.7,0s0.3-0.1,0.5-0.2c0.1-0.1,0.2-0.3,0.3-0.5s0.1-0.5,0.1-0.9h0.5v3.8H248
			c0-0.4-0.1-0.7-0.1-0.9c-0.1-0.2-0.1-0.4-0.2-0.5c-0.1-0.1-0.3-0.2-0.5-0.2s-0.4,0-0.7,0h-0.8v4h1.7c0.3,0,0.6,0,0.9,0
			s0.5-0.1,0.7-0.1c0.2-0.1,0.3-0.2,0.5-0.3c0.1-0.1,0.2-0.3,0.3-0.5s0.2-0.4,0.2-0.7s0.1-0.6,0.2-1h0.4l-0.1,3.1h-7.3V215h1.3v-8.2
			h-1.3v-0.5h7.1l0.1,2.5H250c-0.1-0.4-0.1-0.8-0.2-1c-0.1-0.3-0.2-0.5-0.4-0.6c-0.2-0.2-0.4-0.3-0.7-0.3c-0.3-0.1-0.6-0.1-1-0.1h-2
			L245.6,210.5L245.6,210.5z M246.1,205.8c-0.1-0.1-0.2-0.2-0.2-0.3l2.2-2.1c0.1,0.1,0.3,0.2,0.4,0.4c0.1,0.1,0.2,0.3,0.3,0.5
			L246.1,205.8z"/>
		<path class="st0" d="M259.3,215h1.1v0.5h-3.8V215h1.2l-2.2-3.4L253,215h1.1v0.5h-3V215h1.1l3-3.9l-2.8-4.3h-1.1v-0.5h3.8v0.5h-1.2
			l2.1,3.3l2.5-3.3h-1.1v-0.5h2.9v0.5h-1.1l-2.9,3.8L259.3,215z"/>
		<path class="st0" d="M263.4,206.8v8.2h1.3v0.5h-3.8V215h1.3v-8.2h-1.3v-0.5h3.8v0.5H263.4z"/>
		<path class="st0" d="M265.8,206.3h7.4l0.2,2.7H273c-0.1-0.5-0.1-0.9-0.2-1.1c-0.1-0.3-0.2-0.5-0.4-0.7c-0.2-0.2-0.4-0.3-0.7-0.3
			s-0.6-0.1-1-0.1h-0.5v8.2h1.4v0.5h-4V215h1.4v-8.2h-0.5c-0.3,0-0.5,0-0.7,0s-0.4,0.1-0.6,0.1c-0.2,0.1-0.3,0.1-0.4,0.2
			s-0.2,0.2-0.3,0.4s-0.1,0.4-0.2,0.6c-0.1,0.2-0.1,0.5-0.1,0.8h-0.4L265.8,206.3z"/>
		<path class="st0" d="M274.5,211c0-0.8,0.1-1.4,0.3-2s0.5-1.1,0.9-1.5s0.8-0.8,1.3-1s1.1-0.3,1.7-0.3s1.1,0.1,1.6,0.3
			s0.9,0.5,1.3,0.9s0.6,0.9,0.8,1.5s0.3,1.2,0.3,2c0,0.7-0.1,1.4-0.3,2c-0.2,0.6-0.5,1.1-0.8,1.6s-0.8,0.8-1.3,1s-1.1,0.4-1.7,0.4
			s-1.2-0.1-1.7-0.3s-0.9-0.5-1.3-0.9s-0.6-0.9-0.8-1.5C274.6,212.4,274.5,211.7,274.5,211z M275.9,211c0,0.6,0,1.1,0.1,1.5
			s0.1,0.8,0.3,1.1c0.1,0.3,0.2,0.6,0.4,0.8s0.3,0.4,0.5,0.5s0.4,0.2,0.6,0.3c0.2,0,0.5,0.1,0.7,0.1c0.3,0,0.5,0,0.7-0.1
			c0.2,0,0.5-0.1,0.7-0.3c0.2-0.1,0.4-0.3,0.6-0.5s0.3-0.5,0.4-0.8s0.2-0.7,0.3-1.2c0.1-0.4,0.1-1,0.1-1.6s0-1.1-0.1-1.5
			s-0.1-0.8-0.3-1.1s-0.2-0.6-0.4-0.8s-0.3-0.4-0.5-0.5s-0.4-0.2-0.6-0.3c-0.2,0-0.5-0.1-0.7-0.1s-0.5,0-0.7,0.1s-0.5,0.1-0.7,0.3
			s-0.4,0.3-0.6,0.5s-0.3,0.5-0.4,0.8s-0.2,0.7-0.3,1.2C275.9,209.8,275.9,210.4,275.9,211z"/>
	</g>
</g>
</svg>
